<?xml version="1.0" encoding="UTF-8" standalone="no"?>
<!DOCTYPE svg PUBLIC "-//W3C//DTD SVG 1.1//EN"
 "http://www.w3.org/Graphics/SVG/1.1/DTD/svg11.dtd">
<!-- Generated by graphviz version 9.0.0 (20230911.1827)
 -->
<!-- Pages: 1 -->
<svg width="768pt" height="188pt"
 viewBox="0.00 0.00 768.22 188.00" xmlns="http://www.w3.org/2000/svg" xmlns:xlink="http://www.w3.org/1999/xlink">
<g id="graph0" class="graph" transform="scale(1 1) rotate(0) translate(4 184)">
<polygon fill="white" stroke="none" points="-4,4 -4,-184 764.22,-184 764.22,4 -4,4"/>
<!-- o_a1 -->
<g id="node1" class="node">
<title>o_a1</title>
<ellipse fill="darkgray" stroke="black" cx="248.32" cy="-162" rx="33.85" ry="18"/>
<text text-anchor="middle" x="248.32" y="-157.32" font-family="Times,serif" font-size="14.00">o_a1</text>
</g>
<!-- o_b1 -->
<g id="node3" class="node">
<title>o_b1</title>
<ellipse fill="lightgreen" stroke="black" cx="118.32" cy="-90" rx="34.37" ry="18"/>
<text text-anchor="middle" x="118.32" y="-85.33" font-family="Times,serif" font-size="14.00">o_b1</text>
</g>
<!-- o_a1&#45;&gt;o_b1 -->
<g id="edge1" class="edge">
<title>o_a1&#45;&gt;o_b1</title>
<path fill="none" stroke="black" d="M225.08,-148.49C204.69,-137.5 174.78,-121.4 151.81,-109.03"/>
<polygon fill="black" stroke="black" points="153.6,-106.02 143.13,-104.36 150.28,-112.18 153.6,-106.02"/>
</g>
<!-- o_b2 -->
<g id="node5" class="node">
<title>o_b2</title>
<ellipse fill="white" stroke="black" cx="248.32" cy="-90" rx="34.37" ry="18"/>
<text text-anchor="middle" x="248.32" y="-85.33" font-family="Times,serif" font-size="14.00">o_b2</text>
</g>
<!-- o_a1&#45;&gt;o_b2 -->
<g id="edge2" class="edge">
<title>o_a1&#45;&gt;o_b2</title>
<path fill="none" stroke="black" d="M248.32,-143.7C248.32,-136.41 248.32,-127.73 248.32,-119.54"/>
<polygon fill="black" stroke="black" points="251.82,-119.62 248.32,-109.62 244.82,-119.62 251.82,-119.62"/>
</g>
<!-- o_b3 -->
<g id="node6" class="node">
<title>o_b3</title>
<ellipse fill="white" stroke="black" cx="335.32" cy="-90" rx="34.37" ry="18"/>
<text text-anchor="middle" x="335.32" y="-85.33" font-family="Times,serif" font-size="14.00">o_b3</text>
</g>
<!-- o_a1&#45;&gt;o_b3 -->
<g id="edge3" class="edge">
<title>o_a1&#45;&gt;o_b3</title>
<path fill="none" stroke="black" d="M266.35,-146.5C278.4,-136.8 294.48,-123.86 308.08,-112.92"/>
<polygon fill="black" stroke="black" points="310.24,-115.67 315.84,-106.68 305.85,-110.22 310.24,-115.67"/>
</g>
<!-- n_a1 -->
<g id="node2" class="node">
<title>n_a1</title>
<ellipse fill="darkgray" stroke="black" cx="637.32" cy="-162" rx="34.37" ry="18"/>
<text text-anchor="middle" x="637.32" y="-157.32" font-family="Times,serif" font-size="14.00">n_a1</text>
</g>
<!-- n_b1 -->
<g id="node4" class="node">
<title>n_b1</title>
<ellipse fill="lightblue" stroke="black" cx="549.32" cy="-90" rx="34.9" ry="18"/>
<text text-anchor="middle" x="549.32" y="-85.33" font-family="Times,serif" font-size="14.00">n_b1</text>
</g>
<!-- n_a1&#45;&gt;n_b1 -->
<g id="edge9" class="edge">
<title>n_a1&#45;&gt;n_b1</title>
<path fill="none" stroke="black" d="M619.09,-146.5C606.78,-136.71 590.32,-123.61 576.48,-112.6"/>
<polygon fill="black" stroke="black" points="579.02,-110.15 569.02,-106.67 574.67,-115.63 579.02,-110.15"/>
</g>
<!-- n_b2 -->
<g id="node12" class="node">
<title>n_b2</title>
<ellipse fill="white" stroke="black" cx="637.32" cy="-90" rx="34.9" ry="18"/>
<text text-anchor="middle" x="637.32" y="-85.33" font-family="Times,serif" font-size="14.00">n_b2</text>
</g>
<!-- n_a1&#45;&gt;n_b2 -->
<g id="edge10" class="edge">
<title>n_a1&#45;&gt;n_b2</title>
<path fill="none" stroke="black" d="M637.32,-143.7C637.32,-136.41 637.32,-127.73 637.32,-119.54"/>
<polygon fill="black" stroke="black" points="640.82,-119.62 637.32,-109.62 633.82,-119.62 640.82,-119.62"/>
</g>
<!-- n_b4 -->
<g id="node13" class="node">
<title>n_b4</title>
<ellipse fill="white" stroke="black" cx="725.32" cy="-90" rx="34.9" ry="18"/>
<text text-anchor="middle" x="725.32" y="-85.33" font-family="Times,serif" font-size="14.00">n_b4</text>
</g>
<!-- n_a1&#45;&gt;n_b4 -->
<g id="edge11" class="edge">
<title>n_a1&#45;&gt;n_b4</title>
<path fill="none" stroke="black" d="M655.55,-146.5C667.86,-136.71 684.32,-123.61 698.16,-112.6"/>
<polygon fill="black" stroke="black" points="699.98,-115.63 705.62,-106.67 695.62,-110.15 699.98,-115.63"/>
</g>
<!-- o_c1 -->
<g id="node7" class="node">
<title>o_c1</title>
<ellipse fill="white" stroke="black" cx="33.32" cy="-18" rx="33.32" ry="18"/>
<text text-anchor="middle" x="33.32" y="-13.32" font-family="Times,serif" font-size="14.00">o_c1</text>
</g>
<!-- o_b1&#45;&gt;o_c1 -->
<g id="edge4" class="edge">
<title>o_b1&#45;&gt;o_c1</title>
<path fill="none" stroke="black" d="M100.71,-74.5C88.86,-64.73 73.01,-51.69 59.67,-40.7"/>
<polygon fill="black" stroke="black" points="62.02,-38.1 52.08,-34.45 57.57,-43.51 62.02,-38.1"/>
</g>
<!-- o_c2 -->
<g id="node8" class="node">
<title>o_c2</title>
<ellipse fill="white" stroke="black" cx="118.32" cy="-18" rx="33.32" ry="18"/>
<text text-anchor="middle" x="118.32" y="-13.32" font-family="Times,serif" font-size="14.00">o_c2</text>
</g>
<!-- o_b1&#45;&gt;o_c2 -->
<g id="edge5" class="edge">
<title>o_b1&#45;&gt;o_c2</title>
<path fill="none" stroke="black" d="M118.32,-71.7C118.32,-64.41 118.32,-55.73 118.32,-47.54"/>
<polygon fill="black" stroke="black" points="121.82,-47.62 118.32,-37.62 114.82,-47.62 121.82,-47.62"/>
</g>
<!-- n_c1 -->
<g id="node14" class="node">
<title>n_c1</title>
<ellipse fill="white" stroke="black" cx="464.32" cy="-18" rx="33.85" ry="18"/>
<text text-anchor="middle" x="464.32" y="-13.32" font-family="Times,serif" font-size="14.00">n_c1</text>
</g>
<!-- n_b1&#45;&gt;n_c1 -->
<g id="edge12" class="edge">
<title>n_b1&#45;&gt;n_c1</title>
<path fill="none" stroke="black" d="M531.29,-74.15C519.49,-64.44 503.88,-51.58 490.69,-40.72"/>
<polygon fill="black" stroke="black" points="493.14,-38.2 483.2,-34.55 488.69,-43.6 493.14,-38.2"/>
</g>
<!-- n_c4 -->
<g id="node15" class="node">
<title>n_c4</title>
<ellipse fill="white" stroke="black" cx="550.32" cy="-18" rx="33.85" ry="18"/>
<text text-anchor="middle" x="550.32" y="-13.32" font-family="Times,serif" font-size="14.00">n_c4</text>
</g>
<!-- n_b1&#45;&gt;n_c4 -->
<g id="edge13" class="edge">
<title>n_b1&#45;&gt;n_c4</title>
<path fill="none" stroke="black" d="M549.57,-71.7C549.67,-64.41 549.8,-55.73 549.91,-47.54"/>
<polygon fill="black" stroke="black" points="553.41,-47.67 550.05,-37.62 546.41,-47.57 553.41,-47.67"/>
</g>
<!-- o_d2 -->
<g id="node9" class="node">
<title>o_d2</title>
<ellipse fill="white" stroke="black" cx="204.32" cy="-18" rx="34.37" ry="18"/>
<text text-anchor="middle" x="204.32" y="-13.32" font-family="Times,serif" font-size="14.00">o_d2</text>
</g>
<!-- o_b2&#45;&gt;o_d2 -->
<g id="edge6" class="edge">
<title>o_b2&#45;&gt;o_d2</title>
<path fill="none" stroke="black" d="M237.89,-72.41C232.74,-64.22 226.41,-54.14 220.63,-44.95"/>
<polygon fill="black" stroke="black" points="223.76,-43.36 215.48,-36.75 217.84,-47.08 223.76,-43.36"/>
</g>
<!-- o_d3 -->
<g id="node10" class="node">
<title>o_d3</title>
<ellipse fill="white" stroke="black" cx="291.32" cy="-18" rx="34.37" ry="18"/>
<text text-anchor="middle" x="291.32" y="-13.32" font-family="Times,serif" font-size="14.00">o_d3</text>
</g>
<!-- o_b2&#45;&gt;o_d3 -->
<g id="edge7" class="edge">
<title>o_b2&#45;&gt;o_d3</title>
<path fill="none" stroke="black" d="M258.51,-72.41C263.49,-64.3 269.6,-54.35 275.2,-45.25"/>
<polygon fill="black" stroke="black" points="278.16,-47.11 280.41,-36.76 272.19,-43.45 278.16,-47.11"/>
</g>
<!-- o_d4 -->
<g id="node11" class="node">
<title>o_d4</title>
<ellipse fill="white" stroke="black" cx="378.32" cy="-18" rx="34.37" ry="18"/>
<text text-anchor="middle" x="378.32" y="-13.32" font-family="Times,serif" font-size="14.00">o_d4</text>
</g>
<!-- o_b2&#45;&gt;o_d4 -->
<g id="edge8" class="edge">
<title>o_b2&#45;&gt;o_d4</title>
<path fill="none" stroke="black" d="M271.56,-76.49C291.95,-65.5 321.86,-49.4 344.83,-37.03"/>
<polygon fill="black" stroke="black" points="346.36,-40.18 353.51,-32.36 343.05,-34.02 346.36,-40.18"/>
</g>
<!-- n_d1 -->
<g id="node16" class="node">
<title>n_d1</title>
<ellipse fill="white" stroke="black" cx="637.32" cy="-18" rx="34.9" ry="18"/>
<text text-anchor="middle" x="637.32" y="-13.32" font-family="Times,serif" font-size="14.00">n_d1</text>
</g>
<!-- n_b2&#45;&gt;n_d1 -->
<g id="edge14" class="edge">
<title>n_b2&#45;&gt;n_d1</title>
<path fill="none" stroke="black" d="M637.32,-71.7C637.32,-64.41 637.32,-55.73 637.32,-47.54"/>
<polygon fill="black" stroke="black" points="640.82,-47.62 637.32,-37.62 633.82,-47.62 640.82,-47.62"/>
</g>
<!-- n_d4 -->
<g id="node17" class="node">
<title>n_d4</title>
<ellipse fill="white" stroke="black" cx="725.32" cy="-18" rx="34.9" ry="18"/>
<text text-anchor="middle" x="725.32" y="-13.32" font-family="Times,serif" font-size="14.00">n_d4</text>
</g>
<!-- n_b2&#45;&gt;n_d4 -->
<g id="edge15" class="edge">
<title>n_b2&#45;&gt;n_d4</title>
<path fill="none" stroke="black" d="M655.55,-74.5C667.86,-64.71 684.32,-51.61 698.16,-40.6"/>
<polygon fill="black" stroke="black" points="699.98,-43.63 705.62,-34.67 695.62,-38.15 699.98,-43.63"/>
</g>
</g>
</svg>
