<?xml version="1.0" encoding="us-ascii" standalone="no"?><svg xmlns="http://www.w3.org/2000/svg" xmlns:xlink="http://www.w3.org/1999/xlink" contentStyleType="text/css" height="1500px" preserveAspectRatio="none" style="width:1495px;height:1500px;background:#FFFFFF;" version="1.1" viewBox="0 0 1495 1500" width="1495px" zoomAndPan="magnify"><defs/><g><rect fill="#FFFFFF" height="1298.6406" style="stroke:#181818;stroke-width:1.0;" width="10" x="231" y="112.4297"/><rect fill="#FFFFFF" height="1260.5078" style="stroke:#181818;stroke-width:1.0;" width="10" x="236" y="141.5625"/><rect fill="#FFFFFF" height="55.2969" style="stroke:#181818;stroke-width:1.0;" width="10" x="384" y="251.2266"/><rect fill="#FFFFFF" height="28" style="stroke:#181818;stroke-width:1.0;" width="10" x="384" y="576.7188"/><rect fill="#FFFFFF" height="55.2969" style="stroke:#181818;stroke-width:1.0;" width="10" x="384" y="824.6484"/><rect fill="#FFFFFF" height="122.5313" style="stroke:#181818;stroke-width:1.0;" width="10" x="520" y="388.9219"/><rect fill="#FFFFFF" height="72.2656" style="stroke:#181818;stroke-width:1.0;" width="10" x="520" y="687.1172"/><rect fill="#FFFFFF" height="64.2656" style="stroke:#181818;stroke-width:1.0;" width="10" x="673" y="418.0547"/><rect fill="#FFFFFF" height="14" style="stroke:#181818;stroke-width:1.0;" width="10" x="673" y="716.25"/><rect fill="#FFFFFF" height="14" style="stroke:#181818;stroke-width:1.0;" width="10" x="673" y="1237.5391"/><rect fill="#FFFFFF" height="79.3984" style="stroke:#181818;stroke-width:1.0;" width="10" x="864" y="933.2109"/><rect fill="#FFFFFF" height="72.2656" style="stroke:#181818;stroke-width:1.0;" width="10" x="864" y="1208.4063"/><rect fill="#FFFFFF" height="49.1328" style="stroke:#181818;stroke-width:1.0;" width="10" x="1027" y="1316.8047"/><rect fill="#FFFFFF" height="211.9297" style="stroke:#181818;stroke-width:1.0;" width="10" x="1153.5" y="335.6563"/><rect fill="#FFFFFF" height="161.6641" style="stroke:#181818;stroke-width:1.0;" width="10" x="1153.5" y="633.8516"/><rect fill="#FFFFFF" height="79.3984" style="stroke:#181818;stroke-width:1.0;" width="10" x="1296" y="1041.7422"/><rect fill="none" height="168.7969" style="stroke:#000000;stroke-width:1.5;" width="938.5" x="291" y="350.6563"/><rect fill="none" height="118.5313" style="stroke:#000000;stroke-width:1.5;" width="774" x="455.5" y="648.8516"/><rect fill="none" height="234.1953" style="stroke:#000000;stroke-width:1.5;" width="1293" x="196" y="894.9453"/><rect fill="none" height="212.7969" style="stroke:#000000;stroke-width:1.5;" width="1045" x="186" y="1161.1406"/><rect fill="none" height="103.3984" style="stroke:#000000;stroke-width:1.5;" width="780.5" x="196" y="1185.2734"/><line style="stroke:#181818;stroke-width:0.5;stroke-dasharray:5.0,5.0;" x1="27" x2="27" y1="81.2969" y2="1420.0703"/><line style="stroke:#181818;stroke-width:0.5;stroke-dasharray:5.0,5.0;" x1="236" x2="236" y1="81.2969" y2="1420.0703"/><line style="stroke:#181818;stroke-width:0.5;stroke-dasharray:5.0,5.0;" x1="388.5" x2="388.5" y1="81.2969" y2="1420.0703"/><line style="stroke:#181818;stroke-width:0.5;stroke-dasharray:5.0,5.0;" x1="524.5" x2="524.5" y1="81.2969" y2="1420.0703"/><line style="stroke:#181818;stroke-width:0.5;stroke-dasharray:5.0,5.0;" x1="677.5" x2="677.5" y1="81.2969" y2="1420.0703"/><line style="stroke:#181818;stroke-width:0.5;stroke-dasharray:5.0,5.0;" x1="868.5" x2="868.5" y1="81.2969" y2="1420.0703"/><line style="stroke:#181818;stroke-width:0.5;stroke-dasharray:5.0,5.0;" x1="1031.5" x2="1031.5" y1="81.2969" y2="1420.0703"/><line style="stroke:#181818;stroke-width:0.5;stroke-dasharray:5.0,5.0;" x1="1158.5" x2="1158.5" y1="289.875" y2="1420.0703"/><line style="stroke:#181818;stroke-width:0.5;stroke-dasharray:5.0,5.0;" x1="1300.5" x2="1300.5" y1="863.2969" y2="1420.0703"/><text fill="#000000" font-family="sans-serif" font-size="14" lengthAdjust="spacing" textLength="38" x="5" y="77.9951">Caller</text><ellipse cx="27" cy="13.5" fill="#E2E2F0" rx="8" ry="8" style="stroke:#181818;stroke-width:0.5;"/><path d="M27,21.5 L27,48.5 M14,29.5 L40,29.5 M27,48.5 L14,63.5 M27,48.5 L40,63.5 " fill="none" style="stroke:#181818;stroke-width:0.5;"/><text fill="#000000" font-family="sans-serif" font-size="14" lengthAdjust="spacing" textLength="38" x="5" y="1432.0654">Caller</text><ellipse cx="27" cy="1443.8672" fill="#E2E2F0" rx="8" ry="8" style="stroke:#181818;stroke-width:0.5;"/><path d="M27,1451.8672 L27,1478.8672 M14,1459.8672 L40,1459.8672 M27,1478.8672 L14,1493.8672 M27,1478.8672 L40,1493.8672 " fill="none" style="stroke:#181818;stroke-width:0.5;"/><rect fill="#E2E2F0" height="30.2969" rx="2.5" ry="2.5" style="stroke:#181818;stroke-width:0.5;" width="60" x="206" y="50"/><text fill="#000000" font-family="sans-serif" font-size="14" lengthAdjust="spacing" textLength="46" x="213" y="69.9951">Revapi</text><rect fill="#E2E2F0" height="30.2969" rx="2.5" ry="2.5" style="stroke:#181818;stroke-width:0.5;" width="60" x="206" y="1419.0703"/><text fill="#000000" font-family="sans-serif" font-size="14" lengthAdjust="spacing" textLength="46" x="213" y="1439.0654">Revapi</text><rect fill="#E2E2F0" height="36" rx="2.5" ry="2.5" style="stroke:#181818;stroke-width:0.5;" width="133" x="322.5" y="44.2969"/><ellipse cx="340.5" cy="62.2969" fill="#FFFFFF" rx="11" ry="11" style="stroke:#181818;stroke-width:1.0;"/><path d="M344.6094,68.2969 L336.8906,68.2969 L336.8906,55.9063 L344.6094,55.9063 L344.6094,58.0625 L339.3438,58.0625 L339.3438,60.7344 L344.1094,60.7344 L344.1094,62.8906 L339.3438,62.8906 L339.3438,66.1406 L344.6094,66.1406 L344.6094,68.2969 Z " fill="#000000"/><text fill="#000000" font-family="sans-serif" font-size="14" lengthAdjust="spacing" textLength="91" x="357.5" y="64.292">API Analyzers</text><rect fill="#E2E2F0" height="36" rx="2.5" ry="2.5" style="stroke:#181818;stroke-width:0.5;" width="133" x="322.5" y="1419.0703"/><ellipse cx="340.5" cy="1437.0703" fill="#FFFFFF" rx="11" ry="11" style="stroke:#181818;stroke-width:1.0;"/><path d="M344.6094,1443.0703 L336.8906,1443.0703 L336.8906,1430.6797 L344.6094,1430.6797 L344.6094,1432.8359 L339.3438,1432.8359 L339.3438,1435.5078 L344.1094,1435.5078 L344.1094,1437.6641 L339.3438,1437.6641 L339.3438,1440.9141 L344.6094,1440.9141 L344.6094,1443.0703 Z " fill="#000000"/><text fill="#000000" font-family="sans-serif" font-size="14" lengthAdjust="spacing" textLength="91" x="357.5" y="1439.0654">API Analyzers</text><rect fill="#E2E2F0" height="36" rx="2.5" ry="2.5" style="stroke:#181818;stroke-width:0.5;" width="119" x="465.5" y="44.2969"/><ellipse cx="483.5" cy="62.2969" fill="#FFFFFF" rx="11" ry="11" style="stroke:#181818;stroke-width:1.0;"/><path d="M487.6094,68.2969 L479.8906,68.2969 L479.8906,55.9063 L487.6094,55.9063 L487.6094,58.0625 L482.3438,58.0625 L482.3438,60.7344 L487.1094,60.7344 L487.1094,62.8906 L482.3438,62.8906 L482.3438,66.1406 L487.6094,66.1406 L487.6094,68.2969 Z " fill="#000000"/><text fill="#000000" font-family="sans-serif" font-size="14" lengthAdjust="spacing" textLength="77" x="500.5" y="64.292">Tree Filters</text><rect fill="#E2E2F0" height="36" rx="2.5" ry="2.5" style="stroke:#181818;stroke-width:0.5;" width="119" x="465.5" y="1419.0703"/><ellipse cx="483.5" cy="1437.0703" fill="#FFFFFF" rx="11" ry="11" style="stroke:#181818;stroke-width:1.0;"/><path d="M487.6094,1443.0703 L479.8906,1443.0703 L479.8906,1430.6797 L487.6094,1430.6797 L487.6094,1432.8359 L482.3438,1432.8359 L482.3438,1435.5078 L487.1094,1435.5078 L487.1094,1437.6641 L482.3438,1437.6641 L482.3438,1440.9141 L487.6094,1440.9141 L487.6094,1443.0703 Z " fill="#000000"/><text fill="#000000" font-family="sans-serif" font-size="14" lengthAdjust="spacing" textLength="77" x="500.5" y="1439.0654">Tree Filters</text><rect fill="#E2E2F0" height="36" rx="2.5" ry="2.5" style="stroke:#181818;stroke-width:0.5;" width="167" x="594.5" y="44.2969"/><ellipse cx="612.5" cy="62.2969" fill="#FFFFFF" rx="11" ry="11" style="stroke:#181818;stroke-width:1.0;"/><path d="M616.6094,68.2969 L608.8906,68.2969 L608.8906,55.9063 L616.6094,55.9063 L616.6094,58.0625 L611.3438,58.0625 L611.3438,60.7344 L616.1094,60.7344 L616.1094,62.8906 L611.3438,62.8906 L611.3438,66.1406 L616.6094,66.1406 L616.6094,68.2969 Z " fill="#000000"/><text fill="#000000" font-family="sans-serif" font-size="14" lengthAdjust="spacing" textLength="125" x="629.5" y="64.292">Element Matchers</text><rect fill="#E2E2F0" height="36" rx="2.5" ry="2.5" style="stroke:#181818;stroke-width:0.5;" width="167" x="594.5" y="1419.0703"/><ellipse cx="612.5" cy="1437.0703" fill="#FFFFFF" rx="11" ry="11" style="stroke:#181818;stroke-width:1.0;"/><path d="M616.6094,1443.0703 L608.8906,1443.0703 L608.8906,1430.6797 L616.6094,1430.6797 L616.6094,1432.8359 L611.3438,1432.8359 L611.3438,1435.5078 L616.1094,1435.5078 L616.1094,1437.6641 L611.3438,1437.6641 L611.3438,1440.9141 L616.6094,1440.9141 L616.6094,1443.0703 Z " fill="#000000"/><text fill="#000000" font-family="sans-serif" font-size="14" lengthAdjust="spacing" textLength="125" x="629.5" y="1439.0654">Element Matchers</text><rect fill="#E2E2F0" height="36" rx="2.5" ry="2.5" style="stroke:#181818;stroke-width:0.5;" width="195" x="771.5" y="44.2969"/><ellipse cx="789.5" cy="62.2969" fill="#FFFFFF" rx="11" ry="11" style="stroke:#181818;stroke-width:1.0;"/><path d="M793.6094,68.2969 L785.8906,68.2969 L785.8906,55.9063 L793.6094,55.9063 L793.6094,58.0625 L788.3438,58.0625 L788.3438,60.7344 L793.1094,60.7344 L793.1094,62.8906 L788.3438,62.8906 L788.3438,66.1406 L793.6094,66.1406 L793.6094,68.2969 Z " fill="#000000"/><text fill="#000000" font-family="sans-serif" font-size="14" lengthAdjust="spacing" textLength="153" x="806.5" y="64.292">Difference Transforms</text><rect fill="#E2E2F0" height="36" rx="2.5" ry="2.5" style="stroke:#181818;stroke-width:0.5;" width="195" x="771.5" y="1419.0703"/><ellipse cx="789.5" cy="1437.0703" fill="#FFFFFF" rx="11" ry="11" style="stroke:#181818;stroke-width:1.0;"/><path d="M793.6094,1443.0703 L785.8906,1443.0703 L785.8906,1430.6797 L793.6094,1430.6797 L793.6094,1432.8359 L788.3438,1432.8359 L788.3438,1435.5078 L793.1094,1435.5078 L793.1094,1437.6641 L788.3438,1437.6641 L788.3438,1440.9141 L793.6094,1440.9141 L793.6094,1443.0703 Z " fill="#000000"/><text fill="#000000" font-family="sans-serif" font-size="14" lengthAdjust="spacing" textLength="153" x="806.5" y="1439.0654">Difference Transforms</text><rect fill="#E2E2F0" height="36" rx="2.5" ry="2.5" style="stroke:#181818;stroke-width:0.5;" width="111" x="976.5" y="44.2969"/><ellipse cx="994.5" cy="62.2969" fill="#FFFFFF" rx="11" ry="11" style="stroke:#181818;stroke-width:1.0;"/><path d="M998.6094,68.2969 L990.8906,68.2969 L990.8906,55.9063 L998.6094,55.9063 L998.6094,58.0625 L993.3438,58.0625 L993.3438,60.7344 L998.1094,60.7344 L998.1094,62.8906 L993.3438,62.8906 L993.3438,66.1406 L998.6094,66.1406 L998.6094,68.2969 Z " fill="#000000"/><text fill="#000000" font-family="sans-serif" font-size="14" lengthAdjust="spacing" textLength="69" x="1011.5" y="64.292">Reporters</text><rect fill="#E2E2F0" height="36" rx="2.5" ry="2.5" style="stroke:#181818;stroke-width:0.5;" width="111" x="976.5" y="1419.0703"/><ellipse cx="994.5" cy="1437.0703" fill="#FFFFFF" rx="11" ry="11" style="stroke:#181818;stroke-width:1.0;"/><path d="M998.6094,1443.0703 L990.8906,1443.0703 L990.8906,1430.6797 L998.6094,1430.6797 L998.6094,1432.8359 L993.3438,1432.8359 L993.3438,1435.5078 L998.1094,1435.5078 L998.1094,1437.6641 L993.3438,1437.6641 L993.3438,1440.9141 L998.6094,1440.9141 L998.6094,1443.0703 Z " fill="#000000"/><text fill="#000000" font-family="sans-serif" font-size="14" lengthAdjust="spacing" textLength="69" x="1011.5" y="1439.0654">Reporters</text><rect fill="#E2E2F0" height="30.2969" rx="2.5" ry="2.5" style="stroke:#181818;stroke-width:0.5;" width="122" x="1097.5" y="1419.0703"/><text fill="#000000" font-family="sans-serif" font-size="14" lengthAdjust="spacing" textLength="108" x="1104.5" y="1439.0654">ArchiveAnalyzer</text><rect fill="#E2E2F0" height="30.2969" rx="2.5" ry="2.5" style="stroke:#181818;stroke-width:0.5;" width="143" x="1229.5" y="1419.0703"/><text fill="#000000" font-family="sans-serif" font-size="14" lengthAdjust="spacing" textLength="129" x="1236.5" y="1439.0654">DifferenceAnalyzer</text><rect fill="#FFFFFF" height="1298.6406" style="stroke:#181818;stroke-width:1.0;" width="10" x="231" y="112.4297"/><rect fill="#FFFFFF" height="1260.5078" style="stroke:#181818;stroke-width:1.0;" width="10" x="236" y="141.5625"/><rect fill="#FFFFFF" height="55.2969" style="stroke:#181818;stroke-width:1.0;" width="10" x="384" y="251.2266"/><rect fill="#FFFFFF" height="28" style="stroke:#181818;stroke-width:1.0;" width="10" x="384" y="576.7188"/><rect fill="#FFFFFF" height="55.2969" style="stroke:#181818;stroke-width:1.0;" width="10" x="384" y="824.6484"/><rect fill="#FFFFFF" height="122.5313" style="stroke:#181818;stroke-width:1.0;" width="10" x="520" y="388.9219"/><rect fill="#FFFFFF" height="72.2656" style="stroke:#181818;stroke-width:1.0;" width="10" x="520" y="687.1172"/><rect fill="#FFFFFF" height="64.2656" style="stroke:#181818;stroke-width:1.0;" width="10" x="673" y="418.0547"/><rect fill="#FFFFFF" height="14" style="stroke:#181818;stroke-width:1.0;" width="10" x="673" y="716.25"/><rect fill="#FFFFFF" height="14" style="stroke:#181818;stroke-width:1.0;" width="10" x="673" y="1237.5391"/><rect fill="#FFFFFF" height="79.3984" style="stroke:#181818;stroke-width:1.0;" width="10" x="864" y="933.2109"/><rect fill="#FFFFFF" height="72.2656" style="stroke:#181818;stroke-width:1.0;" width="10" x="864" y="1208.4063"/><rect fill="#FFFFFF" height="49.1328" style="stroke:#181818;stroke-width:1.0;" width="10" x="1027" y="1316.8047"/><rect fill="#FFFFFF" height="211.9297" style="stroke:#181818;stroke-width:1.0;" width="10" x="1153.5" y="335.6563"/><rect fill="#FFFFFF" height="161.6641" style="stroke:#181818;stroke-width:1.0;" width="10" x="1153.5" y="633.8516"/><rect fill="#FFFFFF" height="79.3984" style="stroke:#181818;stroke-width:1.0;" width="10" x="1296" y="1041.7422"/><polygon fill="#181818" points="219,108.4297,229,112.4297,219,116.4297,223,112.4297" style="stroke:#181818;stroke-width:1.0;"/><line style="stroke:#181818;stroke-width:1.0;" x1="27" x2="225" y1="112.4297" y2="112.4297"/><text fill="#000000" font-family="sans-serif" font-size="13" lengthAdjust="spacing" textLength="185" x="34" y="107.3638">&lt;init&gt;(PipelineConfiguration)</text><polygon fill="#181818" points="224,137.5625,234,141.5625,224,145.5625,228,141.5625" style="stroke:#181818;stroke-width:1.0;"/><line style="stroke:#181818;stroke-width:1.0;" x1="27" x2="230" y1="141.5625" y2="141.5625"/><text fill="#000000" font-family="sans-serif" font-size="13" lengthAdjust="spacing" textLength="161" x="34" y="136.4966">analyze(AnalysisContext)</text><line style="stroke:#181818;stroke-width:1.0;" x1="246" x2="288" y1="189.8945" y2="189.8945"/><line style="stroke:#181818;stroke-width:1.0;" x1="288" x2="288" y1="189.8945" y2="202.8945"/><line style="stroke:#181818;stroke-width:1.0;" x1="247" x2="288" y1="202.8945" y2="202.8945"/><polygon fill="#181818" points="257,198.8945,247,202.8945,257,206.8945,253,202.8945" style="stroke:#181818;stroke-width:1.0;"/><text fill="#000000" font-family="sans-serif" font-size="13" lengthAdjust="spacing" textLength="124" x="253" y="184.8286">adapt configuration</text><path d="M389,154.5625 L389,224.5625 L763,224.5625 L763,164.5625 L753,154.5625 L389,154.5625 " fill="#FEFFDD" style="stroke:#181818;stroke-width:0.5;"/><path d="M753,154.5625 L753,164.5625 L763,164.5625 L753,154.5625 " fill="#FEFFDD" style="stroke:#181818;stroke-width:0.5;"/><text fill="#000000" font-family="sans-serif" font-size="13" lengthAdjust="spacing" textLength="329" x="395" y="171.6294">User supplies an analysis context for all extensions.</text><text fill="#000000" font-family="sans-serif" font-size="13" lengthAdjust="spacing" textLength="313" x="395" y="186.7622">This is adapted for each extension to contain just</text><text fill="#000000" font-family="sans-serif" font-size="13" lengthAdjust="spacing" textLength="353" x="395" y="201.895">its configuration and enriched for all available matchers</text><text fill="#000000" font-family="sans-serif" font-size="13" lengthAdjust="spacing" textLength="289" x="395" y="217.0278">so that they're available for other extensions.</text><polygon fill="#181818" points="372,247.2266,382,251.2266,372,255.2266,376,251.2266" style="stroke:#181818;stroke-width:1.0;"/><line style="stroke:#181818;stroke-width:1.0;" x1="246" x2="378" y1="251.2266" y2="251.2266"/><text fill="#000000" font-family="sans-serif" font-size="13" lengthAdjust="spacing" textLength="43" x="253" y="246.1606">old API</text><polygon fill="#181818" points="1085.5,261.2266,1095.5,265.2266,1085.5,269.2266,1089.5,265.2266" style="stroke:#181818;stroke-width:1.0;"/><line style="stroke:#181818;stroke-width:1.0;" x1="394" x2="1091.5" y1="265.2266" y2="265.2266"/><rect fill="#E2E2F0" height="30.2969" rx="2.5" ry="2.5" style="stroke:#181818;stroke-width:0.5;" width="122" x="1097.5" y="259.2266"/><text fill="#000000" font-family="sans-serif" font-size="14" lengthAdjust="spacing" textLength="108" x="1104.5" y="279.2217">ArchiveAnalyzer</text><polygon fill="#181818" points="257,302.5234,247,306.5234,257,310.5234,253,306.5234" style="stroke:#181818;stroke-width:1.0;"/><line style="stroke:#181818;stroke-width:1.0;stroke-dasharray:2.0,2.0;" x1="251" x2="388" y1="306.5234" y2="306.5234"/><polygon fill="#181818" points="1141.5,331.6563,1151.5,335.6563,1141.5,339.6563,1145.5,335.6563" style="stroke:#181818;stroke-width:1.0;"/><line style="stroke:#181818;stroke-width:1.0;" x1="246" x2="1147.5" y1="335.6563" y2="335.6563"/><text fill="#000000" font-family="sans-serif" font-size="13" lengthAdjust="spacing" textLength="49" x="253" y="330.5903">analyze</text><path d="M291,350.6563 L368,350.6563 L368,357.7891 L358,367.7891 L291,367.7891 L291,350.6563 " fill="#EEEEEE" style="stroke:#000000;stroke-width:1.5;"/><rect fill="none" height="168.7969" style="stroke:#000000;stroke-width:1.5;" width="938.5" x="291" y="350.6563"/><text fill="#000000" font-family="sans-serif" font-size="13" font-weight="bold" lengthAdjust="spacing" textLength="32" x="306" y="363.7231">loop</text><text fill="#000000" font-family="sans-serif" font-size="11" font-weight="bold" lengthAdjust="spacing" textLength="163" x="383" y="362.8667">[on elements in archives]</text><polygon fill="#181818" points="541,384.9219,531,388.9219,541,392.9219,537,388.9219" style="stroke:#181818;stroke-width:1.0;"/><line style="stroke:#181818;stroke-width:1.0;" x1="535" x2="1152.5" y1="388.9219" y2="388.9219"/><text fill="#000000" font-family="sans-serif" font-size="13" lengthAdjust="spacing" textLength="53" x="547" y="383.856">element</text><polygon fill="#181818" points="661,414.0547,671,418.0547,661,422.0547,665,418.0547" style="stroke:#181818;stroke-width:1.0;"/><line style="stroke:#181818;stroke-width:1.0;" x1="530" x2="667" y1="418.0547" y2="418.0547"/><text fill="#000000" font-family="sans-serif" font-size="13" lengthAdjust="spacing" textLength="46" x="537" y="412.9888">consult</text><path d="M301,431.0547 L301,471.0547 L749,471.0547 L749,441.0547 L739,431.0547 L301,431.0547 " fill="#FEFFDD" style="stroke:#181818;stroke-width:0.5;"/><path d="M739,431.0547 L739,441.0547 L749,441.0547 L739,431.0547 " fill="#FEFFDD" style="stroke:#181818;stroke-width:0.5;"/><text fill="#000000" font-family="sans-serif" font-size="13" lengthAdjust="spacing" textLength="390" x="307" y="448.1216">The filters are free to consult the available element matchers</text><text fill="#000000" font-family="sans-serif" font-size="13" lengthAdjust="spacing" textLength="427" x="307" y="463.2544">to help with determining if the element matches some user criteria</text><polygon fill="#181818" points="541,478.3203,531,482.3203,541,486.3203,537,482.3203" style="stroke:#181818;stroke-width:1.0;"/><line style="stroke:#181818;stroke-width:1.0;stroke-dasharray:2.0,2.0;" x1="535" x2="677" y1="482.3203" y2="482.3203"/><polygon fill="#181818" points="1141.5,507.4531,1151.5,511.4531,1141.5,515.4531,1145.5,511.4531" style="stroke:#181818;stroke-width:1.0;"/><line style="stroke:#181818;stroke-width:1.0;stroke-dasharray:2.0,2.0;" x1="525" x2="1147.5" y1="511.4531" y2="511.4531"/><text fill="#000000" font-family="sans-serif" font-size="13" lengthAdjust="spacing" textLength="118" x="532" y="506.3872">traversal guidance</text><polygon fill="#181818" points="257,543.5859,247,547.5859,257,551.5859,253,547.5859" style="stroke:#181818;stroke-width:1.0;"/><line style="stroke:#181818;stroke-width:1.0;stroke-dasharray:2.0,2.0;" x1="251" x2="1157.5" y1="547.5859" y2="547.5859"/><text fill="#000000" font-family="sans-serif" font-size="13" lengthAdjust="spacing" textLength="48" x="263" y="542.52">old AST</text><line style="stroke:#A80036;stroke-width:2.0;" x1="1149.5" x2="1167.5" y1="538.5859" y2="556.5859"/><line style="stroke:#A80036;stroke-width:2.0;" x1="1149.5" x2="1167.5" y1="556.5859" y2="538.5859"/><polygon fill="#181818" points="372,572.7188,382,576.7188,372,580.7188,376,576.7188" style="stroke:#181818;stroke-width:1.0;"/><line style="stroke:#181818;stroke-width:1.0;" x1="246" x2="378" y1="576.7188" y2="576.7188"/><text fill="#000000" font-family="sans-serif" font-size="13" lengthAdjust="spacing" textLength="49" x="253" y="571.6528">new API</text><polygon fill="#181818" points="1146.5,586.7188,1156.5,590.7188,1146.5,594.7188,1150.5,590.7188" style="stroke:#181818;stroke-width:1.0;"/><line style="stroke:#181818;stroke-width:1.0;" x1="394" x2="1152.5" y1="590.7188" y2="590.7188"/><polygon fill="#181818" points="257,600.7188,247,604.7188,257,608.7188,253,604.7188" style="stroke:#181818;stroke-width:1.0;"/><line style="stroke:#181818;stroke-width:1.0;stroke-dasharray:2.0,2.0;" x1="251" x2="388" y1="604.7188" y2="604.7188"/><polygon fill="#181818" points="1141.5,629.8516,1151.5,633.8516,1141.5,637.8516,1145.5,633.8516" style="stroke:#181818;stroke-width:1.0;"/><line style="stroke:#181818;stroke-width:1.0;" x1="246" x2="1147.5" y1="633.8516" y2="633.8516"/><text fill="#000000" font-family="sans-serif" font-size="13" lengthAdjust="spacing" textLength="49" x="253" y="628.7856">analyze</text><path d="M455.5,648.8516 L532.5,648.8516 L532.5,655.9844 L522.5,665.9844 L455.5,665.9844 L455.5,648.8516 " fill="#EEEEEE" style="stroke:#000000;stroke-width:1.5;"/><rect fill="none" height="118.5313" style="stroke:#000000;stroke-width:1.5;" width="774" x="455.5" y="648.8516"/><text fill="#000000" font-family="sans-serif" font-size="13" font-weight="bold" lengthAdjust="spacing" textLength="32" x="470.5" y="661.9185">loop</text><text fill="#000000" font-family="sans-serif" font-size="11" font-weight="bold" lengthAdjust="spacing" textLength="163" x="547.5" y="661.062">[on elements in archives]</text><polygon fill="#181818" points="541,683.1172,531,687.1172,541,691.1172,537,687.1172" style="stroke:#181818;stroke-width:1.0;"/><line style="stroke:#181818;stroke-width:1.0;" x1="535" x2="1152.5" y1="687.1172" y2="687.1172"/><text fill="#000000" font-family="sans-serif" font-size="13" lengthAdjust="spacing" textLength="53" x="547" y="682.0513">element</text><polygon fill="#181818" points="661,712.25,671,716.25,661,720.25,665,716.25" style="stroke:#181818;stroke-width:1.0;"/><line style="stroke:#181818;stroke-width:1.0;" x1="530" x2="667" y1="716.25" y2="716.25"/><text fill="#000000" font-family="sans-serif" font-size="13" lengthAdjust="spacing" textLength="46" x="537" y="711.1841">consult</text><polygon fill="#181818" points="541,726.25,531,730.25,541,734.25,537,730.25" style="stroke:#181818;stroke-width:1.0;"/><line style="stroke:#181818;stroke-width:1.0;stroke-dasharray:2.0,2.0;" x1="535" x2="677" y1="730.25" y2="730.25"/><polygon fill="#181818" points="1141.5,755.3828,1151.5,759.3828,1141.5,763.3828,1145.5,759.3828" style="stroke:#181818;stroke-width:1.0;"/><line style="stroke:#181818;stroke-width:1.0;stroke-dasharray:2.0,2.0;" x1="525" x2="1147.5" y1="759.3828" y2="759.3828"/><text fill="#000000" font-family="sans-serif" font-size="13" lengthAdjust="spacing" textLength="118" x="532" y="754.3169">traversal guidance</text><polygon fill="#181818" points="257,791.5156,247,795.5156,257,799.5156,253,795.5156" style="stroke:#181818;stroke-width:1.0;"/><line style="stroke:#181818;stroke-width:1.0;stroke-dasharray:2.0,2.0;" x1="251" x2="1157.5" y1="795.5156" y2="795.5156"/><text fill="#000000" font-family="sans-serif" font-size="13" lengthAdjust="spacing" textLength="54" x="263" y="790.4497">new AST</text><line style="stroke:#A80036;stroke-width:2.0;" x1="1149.5" x2="1167.5" y1="786.5156" y2="804.5156"/><line style="stroke:#A80036;stroke-width:2.0;" x1="1149.5" x2="1167.5" y1="804.5156" y2="786.5156"/><polygon fill="#181818" points="372,820.6484,382,824.6484,372,828.6484,376,824.6484" style="stroke:#181818;stroke-width:1.0;"/><line style="stroke:#181818;stroke-width:1.0;" x1="246" x2="378" y1="824.6484" y2="824.6484"/><text fill="#000000" font-family="sans-serif" font-size="13" lengthAdjust="spacing" textLength="111" x="253" y="819.5825">analyzer for ASTs</text><polygon fill="#181818" points="1217.5,834.6484,1227.5,838.6484,1217.5,842.6484,1221.5,838.6484" style="stroke:#181818;stroke-width:1.0;"/><line style="stroke:#181818;stroke-width:1.0;" x1="394" x2="1223.5" y1="838.6484" y2="838.6484"/><rect fill="#E2E2F0" height="30.2969" rx="2.5" ry="2.5" style="stroke:#181818;stroke-width:0.5;" width="143" x="1229.5" y="832.6484"/><text fill="#000000" font-family="sans-serif" font-size="14" lengthAdjust="spacing" textLength="129" x="1236.5" y="852.6436">DifferenceAnalyzer</text><polygon fill="#181818" points="257,875.9453,247,879.9453,257,883.9453,253,879.9453" style="stroke:#181818;stroke-width:1.0;"/><line style="stroke:#181818;stroke-width:1.0;stroke-dasharray:2.0,2.0;" x1="251" x2="388" y1="879.9453" y2="879.9453"/><path d="M196,894.9453 L273,894.9453 L273,902.0781 L263,912.0781 L196,912.0781 L196,894.9453 " fill="#EEEEEE" style="stroke:#000000;stroke-width:1.5;"/><rect fill="none" height="234.1953" style="stroke:#000000;stroke-width:1.5;" width="1293" x="196" y="894.9453"/><text fill="#000000" font-family="sans-serif" font-size="13" font-weight="bold" lengthAdjust="spacing" textLength="32" x="211" y="908.0122">loop</text><text fill="#000000" font-family="sans-serif" font-size="11" font-weight="bold" lengthAdjust="spacing" textLength="220" x="288" y="907.1558">[recursively on each element pair]</text><polygon fill="#181818" points="852,929.2109,862,933.2109,852,937.2109,856,933.2109" style="stroke:#181818;stroke-width:1.0;"/><line style="stroke:#181818;stroke-width:1.0;" x1="246" x2="858" y1="933.2109" y2="933.2109"/><text fill="#000000" font-family="sans-serif" font-size="13" lengthAdjust="spacing" textLength="81" x="253" y="928.145">element pair</text><path d="M672,946.2109 L672,986.2109 L1065,986.2109 L1065,956.2109 L1055,946.2109 L672,946.2109 " fill="#FEFFDD" style="stroke:#181818;stroke-width:0.5;"/><path d="M1055,946.2109 L1055,956.2109 L1065,956.2109 L1055,946.2109 " fill="#FEFFDD" style="stroke:#181818;stroke-width:0.5;"/><text fill="#000000" font-family="sans-serif" font-size="13" lengthAdjust="spacing" textLength="372" x="678" y="963.2778">The transforms can "witness" the whole recursive traversal</text><text fill="#000000" font-family="sans-serif" font-size="13" lengthAdjust="spacing" textLength="292" x="678" y="978.4106">before they are asked for the transformations</text><polygon fill="#181818" points="257,1008.6094,247,1012.6094,257,1016.6094,253,1012.6094" style="stroke:#181818;stroke-width:1.0;"/><line style="stroke:#181818;stroke-width:1.0;stroke-dasharray:2.0,2.0;" x1="251" x2="868" y1="1012.6094" y2="1012.6094"/><text fill="#000000" font-family="sans-serif" font-size="13" lengthAdjust="spacing" textLength="22" x="263" y="1007.5435">ack</text><polygon fill="#181818" points="1284,1037.7422,1294,1041.7422,1284,1045.7422,1288,1041.7422" style="stroke:#181818;stroke-width:1.0;"/><line style="stroke:#181818;stroke-width:1.0;" x1="246" x2="1290" y1="1041.7422" y2="1041.7422"/><text fill="#000000" font-family="sans-serif" font-size="13" lengthAdjust="spacing" textLength="81" x="253" y="1036.6763">element pair</text><path d="M1123,1054.7422 L1123,1094.7422 L1479,1094.7422 L1479,1064.7422 L1469,1054.7422 L1123,1054.7422 " fill="#FEFFDD" style="stroke:#181818;stroke-width:0.5;"/><path d="M1469,1054.7422 L1469,1064.7422 L1479,1064.7422 L1469,1054.7422 " fill="#FEFFDD" style="stroke:#181818;stroke-width:0.5;"/><text fill="#000000" font-family="sans-serif" font-size="13" lengthAdjust="spacing" textLength="253" x="1129" y="1071.8091">The difference analyzer returns a report</text><text fill="#000000" font-family="sans-serif" font-size="13" lengthAdjust="spacing" textLength="335" x="1129" y="1086.9419">of all differences found between the pair of elements</text><polygon fill="#181818" points="257,1117.1406,247,1121.1406,257,1125.1406,253,1121.1406" style="stroke:#181818;stroke-width:1.0;"/><line style="stroke:#181818;stroke-width:1.0;stroke-dasharray:2.0,2.0;" x1="251" x2="1300" y1="1121.1406" y2="1121.1406"/><text fill="#000000" font-family="sans-serif" font-size="13" lengthAdjust="spacing" textLength="39" x="263" y="1116.0747">report</text><line style="stroke:#A80036;stroke-width:2.0;" x1="1292" x2="1310" y1="1136.1406" y2="1154.1406"/><line style="stroke:#A80036;stroke-width:2.0;" x1="1292" x2="1310" y1="1154.1406" y2="1136.1406"/><path d="M186,1161.1406 L263,1161.1406 L263,1168.2734 L253,1178.2734 L186,1178.2734 L186,1161.1406 " fill="#EEEEEE" style="stroke:#000000;stroke-width:1.5;"/><rect fill="none" height="212.7969" style="stroke:#000000;stroke-width:1.5;" width="1045" x="186" y="1161.1406"/><text fill="#000000" font-family="sans-serif" font-size="13" font-weight="bold" lengthAdjust="spacing" textLength="32" x="201" y="1174.2075">loop</text><text fill="#000000" font-family="sans-serif" font-size="11" font-weight="bold" lengthAdjust="spacing" textLength="56" x="278" y="1173.3511">[reports]</text><path d="M196,1185.2734 L273,1185.2734 L273,1192.4063 L263,1202.4063 L196,1202.4063 L196,1185.2734 " fill="#EEEEEE" style="stroke:#000000;stroke-width:1.5;"/><rect fill="none" height="103.3984" style="stroke:#000000;stroke-width:1.5;" width="780.5" x="196" y="1185.2734"/><text fill="#000000" font-family="sans-serif" font-size="13" font-weight="bold" lengthAdjust="spacing" textLength="32" x="211" y="1198.3403">loop</text><text fill="#000000" font-family="sans-serif" font-size="11" font-weight="bold" lengthAdjust="spacing" textLength="83" x="288" y="1197.4839">[differences]</text><polygon fill="#181818" points="852,1204.4063,862,1208.4063,852,1212.4063,856,1208.4063" style="stroke:#181818;stroke-width:1.0;"/><line style="stroke:#181818;stroke-width:1.0;" x1="246" x2="858" y1="1208.4063" y2="1208.4063"/><polygon fill="#181818" points="694,1233.5391,684,1237.5391,694,1241.5391,690,1237.5391" style="stroke:#181818;stroke-width:1.0;"/><line style="stroke:#181818;stroke-width:1.0;" x1="688" x2="863" y1="1237.5391" y2="1237.5391"/><text fill="#000000" font-family="sans-serif" font-size="13" lengthAdjust="spacing" textLength="46" x="700" y="1232.4731">consult</text><polygon fill="#181818" points="852,1247.5391,862,1251.5391,852,1255.5391,856,1251.5391" style="stroke:#181818;stroke-width:1.0;"/><line style="stroke:#181818;stroke-width:1.0;stroke-dasharray:2.0,2.0;" x1="678" x2="858" y1="1251.5391" y2="1251.5391"/><polygon fill="#181818" points="257,1276.6719,247,1280.6719,257,1284.6719,253,1280.6719" style="stroke:#181818;stroke-width:1.0;"/><line style="stroke:#181818;stroke-width:1.0;stroke-dasharray:2.0,2.0;" x1="251" x2="868" y1="1280.6719" y2="1280.6719"/><text fill="#000000" font-family="sans-serif" font-size="13" lengthAdjust="spacing" textLength="146" x="263" y="1275.606">transformed difference</text><polygon fill="#181818" points="1015,1312.8047,1025,1316.8047,1015,1320.8047,1019,1316.8047" style="stroke:#181818;stroke-width:1.0;"/><line style="stroke:#181818;stroke-width:1.0;" x1="246" x2="1021" y1="1316.8047" y2="1316.8047"/><text fill="#000000" font-family="sans-serif" font-size="13" lengthAdjust="spacing" textLength="122" x="253" y="1311.7388">transformed report</text><path d="M843,1329.8047 L843,1354.8047 L1221,1354.8047 L1221,1339.8047 L1211,1329.8047 L843,1329.8047 " fill="#FEFFDD" style="stroke:#181818;stroke-width:0.5;"/><path d="M1211,1329.8047 L1211,1339.8047 L1221,1339.8047 L1211,1329.8047 " fill="#FEFFDD" style="stroke:#181818;stroke-width:0.5;"/><text fill="#000000" font-family="sans-serif" font-size="13" lengthAdjust="spacing" textLength="357" x="849" y="1346.8716">The reporters process the report in any way they see fit.</text><polygon fill="#181818" points="257,1361.9375,247,1365.9375,257,1369.9375,253,1365.9375" style="stroke:#181818;stroke-width:1.0;"/><line style="stroke:#181818;stroke-width:1.0;stroke-dasharray:2.0,2.0;" x1="251" x2="1031" y1="1365.9375" y2="1365.9375"/><polygon fill="#181818" points="38,1398.0703,28,1402.0703,38,1406.0703,34,1402.0703" style="stroke:#181818;stroke-width:1.0;"/><line style="stroke:#181818;stroke-width:1.0;stroke-dasharray:2.0,2.0;" x1="32" x2="230" y1="1402.0703" y2="1402.0703"/><text fill="#000000" font-family="sans-serif" font-size="13" lengthAdjust="spacing" textLength="91" x="44" y="1397.0044">analysis result</text><!--SRC=[xLR1Rjim3BtdAuXUrg9RFw0e0XHj1-mmeEYo3r1jEjQgI8Oa9yk-VfHioP8hjyZGuumWi6NoaUPxfCGggpJSCI5G0pDG-RjLnxJb5U-OjF24UzPnzrBxk-pbsUtZDxYLJ1p_e3Pdpeg59xYvWVE7puUMMxnOhtE_ZKQ4hrpOuDOCzsywFGZS8TryPxPgW-DkV7ZJyvut3MgK5S96CsaQfNU3kusFRm8yOQTqJ5Q7fxdFQYWWV5cFrOBBIxY66owvNPy_yWu5btYdPCEtlMQMAtcnMW5T1SVhKCjpNs733JbQ_6r75tUDnj6DV6hMMQZI4D5QAekW-RQrSSbTFmr5DdtN2OwEm24knNCmBY1GWO0I1Bf7QGZIN6K8cvQCwUU3O-tjaLNjv01MUJJ69VpgJPu0joRFc3Ae0QNcH6qTexCzuu8z2uoaPoX6WMsPfJyyVjAOc3i0HSkw-058iLnbIbMTrEpuKA86KdmMjTB8gAgtkchv7aCl-4x8bpAl2TS5MJ3KQ7ijIrdDWYLQYTP2gGweaZWq3T4ZWrzUjZaOuOTczE8T0J8VTmKZieyzw18X8aqlNjj70QezHHczYrQ3eZ16O4HcumR6e267xaXE21vpBEiYlGYXHT71WTiMQYJu7VMct09lF6GEP4XJEuJUzKUbgSSrPqNeAA7vYnc5qv8RF5G7mmHiUrup6asf86SQ69JtOnENQpHMg-ChwRmhOOc7_nB-Lmb_59kUX8zWCppv2KU8fiJhjFcbrDQq-ZwlHQkn33bF6gjU6yfU73rdVlgFtTGnhcTL2z-JxB_kWnOzykanUQsMXaS2ND6MTaOTBz7G_ktQ_D0gcXenvOc-8jmp4WxwVSNF8cPUnbt9fe7yplKweU9i68N0gfU5kgI5FwKoYxIcjQcdur1Kq90HjVnukYawgyPln9C_7TnKJn_uZFQ0A7r1N8REChJjIHMP1K-R9tH9zebp4JhlFA9_aMHSwEgY68i5I2nEsVSAWoCV7WCegMfAT3KhsO9GfhEeIoA5Mk1nqafqNHJA1DvfHRKpdk1XrKzZUOG3EmwjOT1jsVRg5BwpGvXZQfLsHpY6QdIL_Gi0]--></g></svg>