<?xml version="1.0" encoding="us-ascii" standalone="no"?><svg xmlns="http://www.w3.org/2000/svg" xmlns:xlink="http://www.w3.org/1999/xlink" contentStyleType="text/css" height="535px" preserveAspectRatio="none" style="width:337px;height:535px;background:#FFFFFF;" version="1.1" viewBox="0 0 337 535" width="337px" zoomAndPan="magnify"><defs/><g><ellipse cx="163" cy="20" fill="#222222" rx="10" ry="10" style="stroke:#222222;stroke-width:1.0;"/><rect fill="#555555" height="6" rx="2.5" ry="2.5" style="stroke:#555555;stroke-width:1.0;" width="306" x="11" y="50"/><rect fill="#F1F1F1" height="33.9688" rx="12.5" ry="12.5" style="stroke:#181818;stroke-width:0.5;" width="96" x="35" y="76"/><text fill="#000000" font-family="sans-serif" font-size="12" lengthAdjust="spacing" textLength="76" x="45" y="97.1387">Old Archives</text><rect fill="#F1F1F1" height="33.9688" rx="12.5" ry="12.5" style="stroke:#181818;stroke-width:0.5;" width="120" x="23" y="129.9688"/><text fill="#000000" font-family="sans-serif" font-size="12" lengthAdjust="spacing" textLength="100" x="33" y="151.1074">Archive Analyzer</text><rect fill="#F1F1F1" height="33.9688" rx="12.5" ry="12.5" style="stroke:#181818;stroke-width:0.5;" width="90" x="38" y="205.3364"/><text fill="#000000" font-family="sans-serif" font-size="12" lengthAdjust="spacing" textLength="70" x="48" y="226.4751">Tree Filters</text><rect fill="#F1F1F1" height="33.9688" rx="12.5" ry="12.5" style="stroke:#181818;stroke-width:0.5;" width="102" x="186" y="76"/><text fill="#000000" font-family="sans-serif" font-size="12" lengthAdjust="spacing" textLength="82" x="196" y="97.1387">New Archives</text><rect fill="#F1F1F1" height="33.9688" rx="12.5" ry="12.5" style="stroke:#181818;stroke-width:0.5;" width="120" x="177" y="129.9688"/><text fill="#000000" font-family="sans-serif" font-size="12" lengthAdjust="spacing" textLength="100" x="187" y="151.1074">Archive Analyzer</text><rect fill="#F1F1F1" height="33.9688" rx="12.5" ry="12.5" style="stroke:#181818;stroke-width:0.5;" width="90" x="192" y="205.3364"/><text fill="#000000" font-family="sans-serif" font-size="12" lengthAdjust="spacing" textLength="70" x="202" y="226.4751">Tree Filters</text><rect fill="#555555" height="6" rx="2.5" ry="2.5" style="stroke:#555555;stroke-width:1.0;" width="306" x="11" y="272.1099"/><rect fill="#F1F1F1" height="33.9688" rx="12.5" ry="12.5" style="stroke:#181818;stroke-width:0.5;" width="139" x="93.5" y="298.1099"/><text fill="#000000" font-family="sans-serif" font-size="12" lengthAdjust="spacing" textLength="119" x="103.5" y="319.2485">Difference Analyzer</text><rect fill="#F1F1F1" height="33.9688" rx="12.5" ry="12.5" style="stroke:#181818;stroke-width:0.5;" width="158" x="84" y="373.4775"/><text fill="#000000" font-family="sans-serif" font-size="12" lengthAdjust="spacing" textLength="138" x="94" y="394.6162">Difference Transforms</text><rect fill="#F1F1F1" height="33.9688" rx="12.5" ry="12.5" style="stroke:#181818;stroke-width:0.5;" width="82" x="122" y="448.8452"/><text fill="#000000" font-family="sans-serif" font-size="12" lengthAdjust="spacing" textLength="62" x="132" y="469.9839">Reporters</text><ellipse cx="163" cy="513.814" fill="none" rx="11" ry="11" style="stroke:#222222;stroke-width:1.0;"/><ellipse cx="163" cy="513.814" fill="#222222" rx="6" ry="6" style="stroke:#222222;stroke-width:1.0;"/><line style="stroke:#181818;stroke-width:1.0;" x1="83" x2="83" y1="109.9688" y2="129.9688"/><polygon fill="#181818" points="79,119.9688,83,129.9688,87,119.9688,83,123.9688" style="stroke:#181818;stroke-width:1.0;"/><line style="stroke:#181818;stroke-width:1.0;" x1="83" x2="83" y1="163.9375" y2="205.3364"/><polygon fill="#181818" points="79,195.3364,83,205.3364,87,195.3364,83,199.3364" style="stroke:#181818;stroke-width:1.0;"/><text fill="#000000" font-family="sans-serif" font-size="11" lengthAdjust="spacing" textLength="22" x="87" y="185.2422">AST</text><line style="stroke:#181818;stroke-width:1.0;" x1="237" x2="237" y1="109.9688" y2="129.9688"/><polygon fill="#181818" points="233,119.9688,237,129.9688,241,119.9688,237,123.9688" style="stroke:#181818;stroke-width:1.0;"/><line style="stroke:#181818;stroke-width:1.0;" x1="237" x2="237" y1="163.9375" y2="205.3364"/><polygon fill="#181818" points="233,195.3364,237,205.3364,241,195.3364,237,199.3364" style="stroke:#181818;stroke-width:1.0;"/><text fill="#000000" font-family="sans-serif" font-size="11" lengthAdjust="spacing" textLength="22" x="241" y="185.2422">AST</text><line style="stroke:#181818;stroke-width:1.0;" x1="83" x2="83" y1="56" y2="76"/><polygon fill="#181818" points="79,66,83,76,87,66,83,70" style="stroke:#181818;stroke-width:1.0;"/><line style="stroke:#181818;stroke-width:1.0;" x1="237" x2="237" y1="56" y2="76"/><polygon fill="#181818" points="233,66,237,76,241,66,237,70" style="stroke:#181818;stroke-width:1.0;"/><line style="stroke:#181818;stroke-width:1.0;" x1="83" x2="83" y1="239.3052" y2="272.1099"/><polygon fill="#181818" points="79,262.1099,83,272.1099,87,262.1099,83,266.1099" style="stroke:#181818;stroke-width:1.0;"/><text fill="#000000" font-family="sans-serif" font-size="11" lengthAdjust="spacing" textLength="66" x="87" y="259.5156">Pruned AST</text><line style="stroke:#181818;stroke-width:1.0;" x1="237" x2="237" y1="239.3052" y2="272.1099"/><polygon fill="#181818" points="233,262.1099,237,272.1099,241,262.1099,237,266.1099" style="stroke:#181818;stroke-width:1.0;"/><text fill="#000000" font-family="sans-serif" font-size="11" lengthAdjust="spacing" textLength="66" x="241" y="259.5156">Pruned AST</text><line style="stroke:#181818;stroke-width:1.0;" x1="163" x2="163" y1="30" y2="50"/><polygon fill="#181818" points="159,40,163,50,167,40,163,44" style="stroke:#181818;stroke-width:1.0;"/><line style="stroke:#181818;stroke-width:1.0;" x1="163" x2="163" y1="278.1099" y2="298.1099"/><polygon fill="#181818" points="159,288.1099,163,298.1099,167,288.1099,163,292.1099" style="stroke:#181818;stroke-width:1.0;"/><line style="stroke:#181818;stroke-width:1.0;" x1="163" x2="163" y1="332.0786" y2="373.4775"/><polygon fill="#181818" points="159,363.4775,163,373.4775,167,363.4775,163,367.4775" style="stroke:#181818;stroke-width:1.0;"/><text fill="#000000" font-family="sans-serif" font-size="11" lengthAdjust="spacing" textLength="106" x="167" y="353.3833">Difference Reports</text><line style="stroke:#181818;stroke-width:1.0;" x1="163" x2="163" y1="407.4463" y2="448.8452"/><polygon fill="#181818" points="159,438.8452,163,448.8452,167,438.8452,163,442.8452" style="stroke:#181818;stroke-width:1.0;"/><text fill="#000000" font-family="sans-serif" font-size="11" lengthAdjust="spacing" textLength="158" x="167" y="428.751">Finalized Difference Reports</text><line style="stroke:#181818;stroke-width:1.0;" x1="163" x2="163" y1="482.814" y2="502.814"/><polygon fill="#181818" points="159,492.814,163,502.814,167,492.814,163,496.814" style="stroke:#181818;stroke-width:1.0;"/><!--SRC=[hOuz3i8m38Ntdi8Nw0MAL2aIwWW8Se6eTI0YE9MTWkZfILA638nizllvz2GQZeqDV6y0kgEVGF5uSq-KNHQ-3oWo_hqYPx7jrKKNLpCY3Cv7PDcS4o-4YP436GhcQXpbx05V_qCZJL0sTtjdBJBIM8FQlfBFE0UE2L9dDHkIH7X8JWykLTsQw3zxsrM6I0pp1m00]--></g></svg>